<svg width="68" height="68" viewBox="0 0 68 68" fill="none" xmlns="http://www.w3.org/2000/svg">
<path d="M33.9998 0.666504C15.6198 0.666504 0.666504 15.6198 0.666504 33.9998V47.8098C0.666504 51.2232 3.6565 53.9998 7.33317 53.9998H10.6665C11.5506 53.9998 12.3984 53.6486 13.0235 53.0235C13.6486 52.3984 13.9998 51.5506 13.9998 50.6665V33.5232C13.9998 32.6391 13.6486 31.7913 13.0235 31.1661C12.3984 30.541 11.5506 30.1898 10.6665 30.1898H7.63984C9.49317 17.2898 20.5932 7.33317 33.9998 7.33317C47.4065 7.33317 58.5065 17.2898 60.3598 30.1898H57.3332C56.4491 30.1898 55.6013 30.541 54.9761 31.1661C54.351 31.7913 53.9998 32.6391 53.9998 33.5232V53.9998C53.9998 57.6765 51.0098 60.6665 47.3332 60.6665H40.6665V57.3332H27.3332V67.3332H47.3332C54.6865 67.3332 60.6665 61.3532 60.6665 53.9998C64.3432 53.9998 67.3332 51.2232 67.3332 47.8098V33.9998C67.3332 15.6198 52.3798 0.666504 33.9998 0.666504Z" fill="#E8C14A"/>
</svg>
