<svg width="68" height="66" viewBox="0 0 68 66" fill="none" xmlns="http://www.w3.org/2000/svg">
<path d="M56.7432 29.0932C59.8897 26.9397 62.2028 23.7725 63.2965 20.1198C63.6298 20.5732 63.9432 21.0432 64.2365 21.5298C66.2498 24.8598 67.3332 28.8765 67.3332 33.6632C67.3332 41.0198 64.5565 46.1632 61.7332 49.4598C60.4463 50.9611 58.9668 52.2858 57.3332 53.3998V59.4965C57.3336 60.2628 57.183 61.0217 56.8901 61.7298C56.5971 62.4379 56.1675 63.0814 55.6258 63.6234C55.0841 64.1655 54.4409 64.5954 53.7329 64.8888C53.025 65.1822 52.2662 65.3332 51.4998 65.3332H47.3332C46.0071 65.3332 44.7353 64.8064 43.7976 63.8687C42.86 62.931 42.3332 61.6592 42.3332 60.3332H35.6665C35.6665 61.6592 35.1397 62.931 34.202 63.8687C33.2644 64.8064 31.9926 65.3332 30.6665 65.3332H26.4998C24.9527 65.3332 23.469 64.7186 22.375 63.6246C21.2811 62.5306 20.6665 61.0469 20.6665 59.4998V57.2232C20.1442 57.047 19.6283 56.8525 19.1198 56.6398C16.5531 55.5846 14.2146 54.043 12.2332 52.0998C10.1364 49.9853 8.33657 47.5956 6.88317 44.9965C6.77512 44.7811 6.62077 44.5923 6.43117 44.4437C6.24156 44.295 6.02142 44.1901 5.7865 44.1365C4.35585 43.8982 3.05614 43.1601 2.1186 42.0535C1.18107 40.9468 0.666519 39.5435 0.666504 38.0932V32.2498C0.666504 29.4398 2.69984 27.0432 5.4665 26.5832C5.7565 26.5332 6.1865 26.2432 6.38984 25.6365C7.02984 23.7132 8.27317 20.8565 10.5665 18.5632C12.2193 16.9431 14.0774 15.5468 16.0932 14.4098C16.5465 14.1498 16.9665 13.9265 17.3332 13.7432V4.23316C17.3332 1.10649 21.0998 -0.17684 23.1332 1.84649C24.2332 2.94316 25.8332 4.40316 27.6032 5.62649C29.3698 6.84649 31.0598 7.64983 32.4498 7.82649C30.8015 11.0939 30.2743 14.813 30.9498 18.4098C31.5532 21.5998 33.9965 23.6165 36.2898 24.5698L48.6098 29.6698C50.9065 30.6198 54.0565 30.9198 56.7432 29.0898M20.6665 28.6632C21.5506 28.6632 22.3984 28.312 23.0235 27.6868C23.6486 27.0617 23.9998 26.2139 23.9998 25.3298C23.9998 24.4458 23.6486 23.5979 23.0235 22.9728C22.3984 22.3477 21.5506 21.9965 20.6665 21.9965C19.7824 21.9965 18.9346 22.3477 18.3095 22.9728C17.6844 23.5979 17.3332 24.4458 17.3332 25.3298C17.3332 26.2139 17.6844 27.0617 18.3095 27.6868C18.9346 28.312 19.7824 28.6632 20.6665 28.6632ZM54.8632 26.3398C56.4096 25.2808 57.7157 23.908 58.6966 22.3109C59.6775 20.7138 60.3112 18.928 60.5565 17.0698C60.8048 15.159 60.636 13.217 60.0617 11.3776C59.4874 9.53825 58.5213 7.84522 57.2298 6.41513C55.9383 4.98504 54.3522 3.85188 52.5807 3.09367C50.8092 2.33547 48.8944 1.97025 46.9682 2.02317C45.042 2.07608 43.1501 2.54588 41.4229 3.4002C39.6957 4.25452 38.1742 5.47305 36.9632 6.97189C35.7522 8.47073 34.8805 10.2142 34.408 12.0824C33.9356 13.9505 33.8736 15.8988 34.2265 17.7932C34.3098 18.2265 34.4565 18.6332 34.6598 19.0098C34.8265 19.3198 35.0265 19.6098 35.2598 19.8765C35.8665 20.5765 36.6798 21.1232 37.5665 21.4932L49.8865 26.5932C51.5198 27.2698 53.4032 27.3365 54.8632 26.3398Z" fill="#E8C14A"/>
</svg>
