<svg width="68" height="54" viewBox="0 0 68 54" fill="none" xmlns="http://www.w3.org/2000/svg">
<path fill-rule="evenodd" clip-rule="evenodd" d="M27.3168 0.333496H40.6835C53.2835 0.333496 59.5835 0.333496 63.5001 4.24016C66.2001 6.92683 67.0368 10.7435 67.3001 16.9635C67.3501 18.1968 67.3768 18.8168 67.1468 19.2268C66.9135 19.6368 65.9968 20.1535 64.1568 21.1802C63.1203 21.758 62.257 22.6021 61.656 23.6253C61.055 24.6484 60.7381 25.8135 60.7381 27.0002C60.7381 28.1868 61.055 29.3519 61.656 30.3751C62.257 31.3982 63.1203 32.2423 64.1568 32.8202C65.9968 33.8502 66.9168 34.3635 67.1468 34.7735C67.3768 35.1835 67.3501 35.8002 67.2968 37.0335C67.0368 43.2568 66.1968 47.0735 63.5001 49.7602C59.5868 53.6668 53.2868 53.6668 40.6835 53.6668H27.3168C14.7168 53.6668 8.41678 53.6668 4.50012 49.7602C1.80012 47.0735 0.963451 43.2568 0.700118 37.0368C0.650118 35.8035 0.623451 35.1835 0.853451 34.7735C1.08678 34.3635 2.00345 33.8502 3.84345 32.8202C4.8799 32.2423 5.74324 31.3982 6.34426 30.3751C6.94527 29.3519 7.26216 28.1868 7.26216 27.0002C7.26216 25.8135 6.94527 24.6484 6.34426 23.6253C5.74324 22.6021 4.8799 21.758 3.84345 21.1802C2.00345 20.1535 1.08345 19.6368 0.853451 19.2268C0.623451 18.8168 0.650118 18.2002 0.703451 16.9635C0.963451 10.7435 1.80345 6.93016 4.50012 4.24016C8.41345 0.333496 14.7135 0.333496 27.3168 0.333496ZM45.8268 15.2335C46.059 15.4654 46.2432 15.7408 46.3689 16.0439C46.4946 16.347 46.5593 16.672 46.5593 17.0002C46.5593 17.3283 46.4946 17.6533 46.3689 17.9564C46.2432 18.2596 46.059 18.5349 45.8268 18.7668L25.7768 38.7668C25.3063 39.2356 24.6693 39.4988 24.0051 39.4988C23.341 39.4988 22.7039 39.2356 22.2335 38.7668C22.0012 38.5349 21.817 38.2596 21.6913 37.9564C21.5656 37.6533 21.5009 37.3283 21.5009 37.0002C21.5009 36.672 21.5656 36.347 21.6913 36.0439C21.817 35.7408 22.0012 35.4654 22.2335 35.2335L42.2835 15.2335C42.7539 14.7647 43.391 14.5015 44.0551 14.5015C44.7193 14.5015 45.3563 14.7647 45.8268 15.2335ZM42.3835 38.6668C42.8337 38.687 43.2834 38.6157 43.7054 38.4572C44.1274 38.2988 44.5129 38.0565 44.8386 37.745C45.1644 37.4335 45.4236 37.0592 45.6008 36.6448C45.7779 36.2303 45.8692 35.7842 45.8692 35.3335C45.8692 34.8828 45.7779 34.4367 45.6008 34.0222C45.4236 33.6078 45.1644 33.2335 44.8386 32.922C44.5129 32.6105 44.1274 32.3682 43.7054 32.2097C43.2834 32.0513 42.8337 31.98 42.3835 32.0002C40.5368 32.0002 39.0401 33.4935 39.0401 35.3335C39.0401 37.1735 40.5401 38.6668 42.3835 38.6668ZM25.6735 22.0002C27.5201 22.0002 29.0168 20.5068 29.0168 18.6668C29.0168 16.8268 27.5201 15.3335 25.6735 15.3335C25.2232 15.3134 24.7735 15.3847 24.3515 15.5431C23.9295 15.7015 23.544 15.9438 23.2183 16.2553C22.8925 16.5668 22.6333 16.9411 22.4561 17.3556C22.279 17.77 22.1877 18.2161 22.1877 18.6668C22.1877 19.1176 22.279 19.5636 22.4561 19.9781C22.6333 20.3926 22.8925 20.7668 23.2183 21.0784C23.544 21.3899 23.9295 21.6321 24.3515 21.7906C24.7735 21.949 25.2232 22.0203 25.6735 22.0002Z" fill="#E8C14A"/>
</svg>
